<svg width="55" height="78" viewBox="0 0 55 78" fill="none" xmlns="http://www.w3.org/2000/svg">
<path d="M31.7732 37.4292C36.5532 41.7818 44.8732 42.6687 51.0302 37.0622C56.2302 32.328 56.2282 24.6263 51.0302 19.893L33.0902 3.55608C28.2742 -0.827508 19.9592 -1.65979 13.8312 3.92214C9.13019 8.20192 8.68019 14.9093 12.4792 19.6544L6.21419 25.3593C4.87519 26.5786 5.89719 28.6775 7.79919 28.5764L21.2732 27.8689L31.7732 37.4292ZM43.1772 26.9728C43.4205 27.1888 43.6144 27.4466 43.7475 27.7314C43.8805 28.0161 43.9502 28.322 43.9524 28.6315C43.9547 28.9409 43.8894 29.2476 43.7604 29.5339C43.6315 29.8202 43.4413 30.0803 43.2011 30.2992C42.9609 30.518 42.6754 30.6913 42.361 30.8089C42.0467 30.9265 41.7099 30.9861 41.3701 30.9842C41.0303 30.9824 40.6942 30.9191 40.3815 30.7981C40.0688 30.677 39.7855 30.5007 39.5482 30.2792C39.0667 29.8409 38.7961 29.2463 38.796 28.6263C38.7959 28.0064 39.0663 27.4118 39.5477 26.9733C40.0291 26.5349 40.682 26.2885 41.3628 26.2884C42.0437 26.2883 42.6957 26.5345 43.1772 26.9728ZM21.6842 14.0106C21.4377 13.7952 21.2409 13.5372 21.1053 13.2517C20.9697 12.9662 20.8981 12.659 20.8946 12.3479C20.8911 12.0369 20.9558 11.7283 21.0849 11.4403C21.214 11.1524 21.4049 10.8907 21.6465 10.6708C21.8881 10.4509 22.1755 10.2771 22.4918 10.1596C22.808 10.0421 23.1469 9.98327 23.4885 9.98655C23.8301 9.98983 24.1675 10.0552 24.481 10.1787C24.7945 10.3023 25.0778 10.4815 25.3142 10.706C25.7856 11.1462 26.0476 11.7378 26.0433 12.3527C26.0391 12.9675 25.769 13.5561 25.2915 13.9909C24.8141 14.4256 24.1677 14.6716 23.4925 14.6755C22.8173 14.6793 22.1676 14.4399 21.6842 14.0106ZM34.2462 18.8394C34.4895 19.0555 34.6832 19.3134 34.8162 19.5981C34.9492 19.8829 35.0188 20.1888 35.0209 20.4982C35.0231 20.8077 34.9577 21.1144 34.8287 21.4007C34.6996 21.6869 34.5094 21.947 34.2691 22.1658C34.0288 22.3846 33.7432 22.5578 33.4289 22.6753C33.1145 22.7928 32.7777 22.8523 32.4379 22.8504C32.0981 22.8484 31.7621 22.7851 31.4493 22.664C31.1366 22.5429 30.8534 22.3664 30.6162 22.1449C30.1448 21.7047 29.8828 21.1131 29.887 20.4982C29.8913 19.8834 30.1614 19.2948 30.6388 18.8601C31.1163 18.4253 31.7627 18.1793 32.4379 18.1755C33.1131 18.1716 33.7628 18.4102 34.2462 18.8394ZM41.0992 52.9739L23.1582 36.636C17.9602 31.9037 9.50019 31.9037 4.30119 36.637C-1.77081 42.167 -0.958811 49.7495 3.89919 54.1731L14.3982 63.7343L13.6212 76.0027C13.5112 77.7201 15.8072 78.6717 17.1542 77.4451L23.4192 71.7403C28.6312 75.2005 35.9962 74.7898 40.6962 70.5091C46.7562 64.9919 45.9702 57.4094 41.0992 52.9739ZM11.7522 47.0933C11.5138 46.8762 11.3246 46.6186 11.1956 46.335C11.0665 46.0514 11.0001 45.7474 11 45.4404C11 45.1334 11.0663 44.8295 11.1953 44.5458C11.3243 44.2622 11.5133 44.0045 11.7517 43.7874C11.99 43.5703 12.273 43.3981 12.5845 43.2805C12.8959 43.163 13.2297 43.1025 13.5668 43.1025C13.904 43.1024 14.2378 43.1629 14.5493 43.2803C14.8607 43.3977 15.1438 43.5699 15.3822 43.7869C15.8536 44.2271 16.1156 44.8187 16.1113 45.4336C16.1071 46.0484 15.837 46.637 15.3595 47.0717C14.8821 47.5065 14.2357 47.7525 13.5605 47.7563C12.8853 47.7602 12.2356 47.5216 11.7522 47.0924V47.0933ZM20.6842 55.2258C20.4377 55.0104 20.2409 54.7524 20.1053 54.4669C19.9697 54.1814 19.8981 53.8741 19.8946 53.5631C19.8911 53.2521 19.9558 52.9435 20.0849 52.6555C20.214 52.3676 20.4049 52.1059 20.6465 51.886C20.8881 51.6661 21.1755 51.4923 21.4918 51.3748C21.808 51.2573 22.1469 51.1985 22.4885 51.2017C22.8301 51.205 23.1675 51.2703 23.481 51.3939C23.7945 51.5174 24.0778 51.6967 24.3142 51.9212C24.7856 52.3614 25.0476 52.953 25.0433 53.5679C25.0391 54.1827 24.769 54.7713 24.2915 55.2061C23.8141 55.6408 23.1677 55.8868 22.4925 55.8906C21.8173 55.8945 21.1676 55.655 20.6842 55.2258ZM29.6162 63.3601C29.3778 63.143 29.1886 62.8854 29.0596 62.6018C28.9305 62.3182 28.8641 62.0142 28.864 61.7072C28.864 61.4003 28.9303 61.0963 29.0593 60.8126C29.1883 60.529 29.3773 60.2713 29.6157 60.0542C29.854 59.8371 30.137 59.6649 30.4485 59.5473C30.7599 59.4298 31.0937 59.3693 31.4308 59.3693C31.768 59.3692 32.1018 59.4297 32.4133 59.5471C32.7247 59.6645 33.0078 59.8367 33.2462 60.0537C33.7176 60.4939 33.9796 61.0855 33.9753 61.7004C33.9711 62.3152 33.701 62.9038 33.2235 63.3386C32.7461 63.7733 32.0997 64.0193 31.4245 64.0231C30.7493 64.027 30.0996 63.7894 29.6162 63.3601Z" fill="#5A1CBB"/>
</svg>
