<svg width="78" height="78" viewBox="0 0 78 78" fill="none" xmlns="http://www.w3.org/2000/svg">
<path d="M0.938451 59.2984C1.07325 61.3445 1.21279 63.4548 1.34759 65.635L1.35114 65.6802L1.8809 72.8504C1.95184 73.8123 2.36808 74.6745 3.00544 75.3145C3.64399 75.9558 4.50248 76.3738 5.45911 76.4451L12.599 76.9759L12.6439 76.9794C26.9355 77.876 37.7565 78.4413 46.877 77.5542C57.5277 76.5175 65.0507 73.4632 70.5504 67.94C80.4987 57.9494 80.481 42.2789 70.5102 32.2657C66.0286 27.765 59.9163 25.01 53.5888 24.5159C53.0981 18.1603 50.3535 12.0232 45.8719 7.52252C35.8999 -2.49185 20.2958 -2.50966 10.3475 7.48214C-1.6784 19.5592 -0.637808 35.3687 0.938451 59.2984ZM25.1109 31.1233L32.4092 38.4539L39.6934 31.1399L46.9917 38.4705L39.7076 45.7833L47.0071 53.1138L39.7253 60.4266L32.4258 53.0972L25.144 60.41L17.8445 53.0806L25.1275 45.7666L17.828 38.4373L25.1109 31.1233Z" fill="#E6A532"/>
</svg>
