<svg width="78" height="78" viewBox="0 0 78 78" fill="none" xmlns="http://www.w3.org/2000/svg">
<path d="M62.8005 73.182L75.5147 52.6516C78.9395 47.1196 79.4175 38.3902 73.1296 32.1047L45.913 4.89875C41.3112 0.298712 32.918 -2.16386 25.3581 2.51462L4.81864 15.2238C-0.756845 18.6741 -1.66028 26.4261 2.98182 31.0664C3.95919 32.0382 5.17047 32.7419 6.49894 33.1098C7.82741 33.4776 9.22828 33.4973 10.5665 33.1667L18.6025 31.1593C19.2821 30.9913 19.9936 31.0011 20.6683 31.1879C21.3431 31.3746 21.9583 31.7319 22.4547 32.2255L45.7912 55.5528C46.7927 56.554 47.2026 58.0299 46.8578 59.4046L44.8496 67.4363C44.5188 68.7747 44.5386 70.1757 44.907 71.5042C45.2753 72.8328 45.9799 74.044 46.9528 75.0212C51.5887 79.6553 59.3458 78.7615 62.8005 73.182ZM37.7862 25.5819L35.8338 23.6292L33.8803 25.5819C33.4257 26.0297 32.8124 26.2797 32.1742 26.2774C31.5359 26.2751 30.9244 26.0206 30.4731 25.5695C30.0218 25.1183 29.7672 24.5071 29.7649 23.8691C29.7626 23.2311 30.0127 22.618 30.4607 22.1636L32.4142 20.2109L30.4607 18.2592C30.0127 17.8048 29.7626 17.1917 29.7649 16.5537C29.7672 15.9157 30.0218 15.3045 30.4731 14.8533C30.9244 14.4022 31.5359 14.1477 32.1742 14.1454C32.8124 14.143 33.4257 14.3931 33.8803 14.8409L35.8338 16.7926L37.7862 14.8409C38.2408 14.3931 38.8541 14.143 39.4924 14.1454C40.1307 14.1477 40.7421 14.4022 41.1934 14.8533C41.6448 15.3045 41.8993 15.9157 41.9017 16.5537C41.904 17.1917 41.6539 17.8048 41.2059 18.2592L39.2534 20.2109L41.2059 22.1636C41.6539 22.618 41.904 23.2311 41.9017 23.8691C41.8993 24.5071 41.6448 25.1183 41.1934 25.5695C40.7421 26.0206 40.1307 26.2751 39.4924 26.2774C38.8541 26.2797 38.2408 26.0297 37.7862 25.5819ZM52.4374 40.2273C52.2124 40.0027 52.034 39.736 51.9122 39.4425C51.7904 39.1489 51.7277 38.8343 51.7277 38.5165C51.7277 38.1987 51.7903 37.884 51.912 37.5904C52.0337 37.2969 52.2121 37.0302 52.437 36.8055C52.6619 36.5809 52.9289 36.4028 53.2227 36.2814C53.5165 36.16 53.8314 36.0977 54.1493 36.0981C54.4672 36.0984 54.7819 36.1613 55.0755 36.2833C55.369 36.4053 55.6357 36.5839 55.8601 36.809C56.3006 37.2652 56.5442 37.8761 56.5385 38.5101C56.5328 39.1442 56.2782 39.7506 55.8296 40.1988C55.3809 40.647 54.7741 40.9011 54.1398 40.9065C53.5055 40.9118 52.8935 40.6679 52.4374 40.2273ZM52.4374 47.551C52.0022 47.0939 51.763 46.4848 51.7708 45.8538C51.7787 45.2228 52.033 44.6199 52.4794 44.1738C52.9259 43.7276 53.5291 43.4736 54.1604 43.4659C54.7916 43.4583 55.4009 43.6975 55.858 44.1327C56.2892 44.5905 56.525 45.1981 56.5156 45.8268C56.5061 46.4555 56.2521 47.0557 55.8073 47.5003C55.3625 47.9449 54.762 48.1988 54.1331 48.2083C53.5042 48.2178 52.8953 47.982 52.4374 47.551ZM59.764 40.2283C59.4254 39.8902 59.1948 39.4593 59.1013 38.9902C59.0078 38.521 59.0555 38.0347 59.2386 37.5927C59.4216 37.1507 59.7317 36.7729 60.1296 36.5071C60.5274 36.2413 60.9952 36.0994 61.4738 36.0994C61.9523 36.0994 62.4201 36.2413 62.818 36.5071C63.2159 36.7729 63.5259 37.1507 63.709 37.5927C63.892 38.0347 63.9398 38.521 63.8463 38.9902C63.7528 39.4593 63.5221 39.8902 63.1836 40.2283C62.73 40.6813 62.115 40.9358 61.4738 40.9358C60.8326 40.9358 60.2176 40.6813 59.764 40.2283ZM59.764 47.551C59.3328 47.0932 59.0969 46.4856 59.1064 45.8569C59.1159 45.2283 59.3699 44.628 59.8147 44.1834C60.2595 43.7388 60.8599 43.4849 61.4889 43.4754C62.1178 43.466 62.7256 43.7017 63.1836 44.1327C63.6148 44.5905 63.8506 45.1981 63.8411 45.8268C63.8317 46.4555 63.5776 47.0557 63.1329 47.5003C62.6881 47.9449 62.0876 48.1988 61.4587 48.2083C60.8298 48.2178 60.2219 47.982 59.764 47.551Z" fill="#3F9CBB"/>
</svg>
