<svg width="50" height="78" viewBox="0 0 50 78" fill="none" xmlns="http://www.w3.org/2000/svg">
<path d="M28.9218 37.4292C33.2729 41.7818 40.8462 42.6687 46.4507 37.0622C51.184 32.328 51.1822 24.6263 46.4507 19.893L30.1206 3.55608C25.7368 -0.827508 18.168 -1.65979 12.59 3.92214C8.31083 8.20192 7.90122 14.9093 11.3593 19.6544L5.65652 25.3593C4.43768 26.5786 5.36797 28.6775 7.09928 28.5764L19.3641 27.8689L28.9218 37.4292ZM39.3024 26.9728C39.5239 27.1888 39.7004 27.4466 39.8215 27.7314C39.9426 28.0161 40.006 28.322 40.0081 28.6315C40.0101 28.9409 39.9507 29.2476 39.8333 29.5339C39.7159 29.8202 39.5429 30.0803 39.3242 30.2992C39.1055 30.518 38.8456 30.6913 38.5595 30.8089C38.2734 30.9265 37.9668 30.9861 37.6575 30.9842C37.3482 30.9824 37.0423 30.9191 36.7576 30.7981C36.4729 30.677 36.2151 30.5007 35.9991 30.2792C35.5608 29.8409 35.3145 29.2463 35.3144 28.6263C35.3143 28.0064 35.5605 27.4118 35.9986 26.9733C36.4368 26.5349 37.0311 26.2885 37.6509 26.2884C38.2706 26.2883 38.8641 26.5345 39.3024 26.9728ZM19.7382 14.0106C19.5139 13.7952 19.3347 13.5372 19.2113 13.2517C19.0879 12.9662 19.0226 12.659 19.0195 12.3479C19.0163 12.0369 19.0752 11.7283 19.1927 11.4403C19.3102 11.1524 19.484 10.8907 19.7039 10.6708C19.9238 10.4509 20.1854 10.2771 20.4733 10.1596C20.7612 10.0421 21.0697 9.98327 21.3806 9.98655C21.6915 9.98983 21.9987 10.0552 22.284 10.1787C22.5694 10.3023 22.8272 10.4815 23.0425 10.706C23.4716 11.1462 23.71 11.7378 23.7062 12.3527C23.7023 12.9675 23.4565 13.5561 23.0218 13.9909C22.5872 14.4256 21.9989 14.6716 21.3843 14.6755C20.7696 14.6793 20.1783 14.4399 19.7382 14.0106ZM31.1729 18.8394C31.3943 19.0555 31.5707 19.3134 31.6918 19.5981C31.8128 19.8829 31.8762 20.1888 31.8781 20.4982C31.88 20.8077 31.8206 21.1144 31.7031 21.4007C31.5856 21.6869 31.4125 21.947 31.1938 22.1658C30.975 22.3846 30.7151 22.5578 30.4289 22.6753C30.1428 22.7928 29.8362 22.8523 29.5268 22.8504C29.2175 22.8484 28.9117 22.7851 28.627 22.664C28.3424 22.5429 28.0846 22.3664 27.8687 22.1449C27.4395 21.7047 27.2011 21.1131 27.2049 20.4982C27.2088 19.8834 27.4547 19.2948 27.8893 18.8601C28.3239 18.4253 28.9122 18.1793 29.5268 18.1755C30.1415 18.1716 30.7329 18.4102 31.1729 18.8394ZM37.4109 52.9739L21.0799 36.636C16.3484 31.9037 8.64763 31.9037 3.91519 36.637C-1.6119 42.167 -0.872766 49.7495 3.54927 54.1731L13.1061 63.7343L12.3988 76.0027C12.2987 77.7201 14.3886 78.6717 15.6147 77.4451L21.3175 71.7403C26.0618 75.2005 32.7658 74.7898 37.0441 70.5091C42.5602 64.9919 41.8448 57.4094 37.4109 52.9739ZM10.6975 47.0933C10.4805 46.8762 10.3084 46.6186 10.1909 46.335C10.0734 46.0514 10.0129 45.7474 10.0129 45.4404C10.0128 45.1334 10.0732 44.8295 10.1906 44.5458C10.308 44.2622 10.4801 44.0045 10.6971 43.7874C10.914 43.5703 11.1716 43.3981 11.4551 43.2805C11.7386 43.163 12.0425 43.1025 12.3493 43.1025C12.6562 43.1024 12.9601 43.1629 13.2436 43.2803C13.5271 43.3977 13.7848 43.5699 14.0018 43.7869C14.4309 44.2271 14.6694 44.8187 14.6655 45.4336C14.6616 46.0484 14.4158 46.637 13.9812 47.0717C13.5465 47.5065 12.9582 47.7525 12.3436 47.7563C11.729 47.7602 11.1376 47.5216 10.6975 47.0924V47.0933ZM18.828 55.2258C18.6036 55.0104 18.4245 54.7524 18.301 54.4669C18.1776 54.1814 18.1124 53.8741 18.1092 53.5631C18.106 53.2521 18.1649 52.9435 18.2824 52.6555C18.4 52.3676 18.5738 52.1059 18.7937 51.886C19.0136 51.6661 19.2751 51.4923 19.5631 51.3748C19.851 51.2573 20.1594 51.1985 20.4703 51.2017C20.7813 51.205 21.0884 51.2703 21.3738 51.3939C21.6591 51.5174 21.917 51.6967 22.1322 51.9212C22.5613 52.3614 22.7998 52.953 22.7959 53.5679C22.7921 54.1827 22.5462 54.7713 22.1116 55.2061C21.677 55.6408 21.0886 55.8868 20.474 55.8906C19.8594 55.8945 19.268 55.655 18.828 55.2258ZM26.9584 63.3601C26.7414 63.143 26.5692 62.8854 26.4517 62.6018C26.3343 62.3182 26.2738 62.0142 26.2737 61.7072C26.2737 61.4003 26.3341 61.0963 26.4515 60.8126C26.5689 60.529 26.741 60.2713 26.9579 60.0542C27.1749 59.8371 27.4325 59.6649 27.716 59.5473C27.9995 59.4298 28.3033 59.3693 28.6102 59.3693C28.9171 59.3692 29.2209 59.4297 29.5045 59.5471C29.788 59.6645 30.0456 59.8367 30.2626 60.0537C30.6917 60.4939 30.9302 61.0855 30.9264 61.7004C30.9225 62.3152 30.6766 62.9038 30.242 63.3386C29.8074 63.7733 29.2191 64.0193 28.6044 64.0231C27.9898 64.027 27.3984 63.7894 26.9584 63.3601Z" fill="#5A1CBB"/>
</svg>
