<svg width="75" height="78" viewBox="0 0 75 78" fill="none" xmlns="http://www.w3.org/2000/svg">
<path d="M30.7285 0L46.2147 0.621292C46.5255 0.634418 46.8221 0.831307 47.0433 1.1755L56.415 15.6913C57.2474 16.9762 57.7355 18.7012 57.7812 20.5201L58.2652 39.2902C58.284 40.0238 58.6729 40.5955 59.1474 40.594L68.182 40.5211C69.2888 40.5215 70.3503 41.202 71.1335 42.4132C71.9168 43.6245 72.3578 45.2676 72.3598 46.9819V47.3611C72.3598 49.0588 71.9333 50.6557 71.1574 51.856C70.777 52.4482 70.3246 52.9177 69.8263 53.2373C69.328 53.557 68.7938 53.7205 68.2545 53.7184H53.4056C51.1957 53.7184 49.2692 50.736 49.2692 47.3116L49.2683 35.0534L37.9222 35.0403L37.9316 57.1647C37.9325 57.786 37.7339 58.3694 37.4043 58.7209L20.3635 76.82C19.0801 78.0582 17.5783 78.3266 16.196 77.6032C15.4888 77.2338 14.8463 76.6164 14.3185 75.7991C13.8251 75.0329 13.4422 74.1133 13.1952 73.101C12.3713 69.7568 13.2648 65.9051 15.3194 63.9464L26.9037 50.8599L27.141 34.4088L14.3769 35.0534C14.2104 35.0623 14.0444 35.0181 13.8894 34.9235C13.7344 34.8289 13.5936 34.686 13.4758 34.5036L1.42627 15.8386C0.484685 14.3816 -0.0331877 12.3675 0.00165104 10.3082C0.0166028 9.28306 0.167601 8.27366 0.445248 7.34281C0.722896 6.41195 1.12125 5.57955 1.61553 4.89742C3.53825 2.2139 6.5438 2.43558 8.45804 5.40058L16.5331 17.9081L44.2572 15.5236L42.2488 12.4127L30.7021 12.9188C30.1301 12.9536 29.5596 12.8058 29.026 12.4847C28.4925 12.1635 28.0073 11.6759 27.6005 11.052L27.5854 11.0301C27.1776 10.401 26.8586 9.64731 26.6489 8.81701C26.4391 7.98671 26.3431 7.09792 26.367 6.20709C26.4424 2.78415 28.4009 0.00145843 30.7285 0ZM62.5353 17.1716C65.3836 12.7598 70.0162 12.7598 72.8645 17.1716C75.7118 21.5833 75.7118 28.7574 72.8645 33.1706C70.0162 37.5809 65.3836 37.5809 62.5353 33.1706C59.6879 28.7574 59.687 21.5833 62.5353 17.1716Z" fill="#29BA66"/>
</svg>
