<svg width="78" height="79" viewBox="0 0 78 79" fill="none" xmlns="http://www.w3.org/2000/svg">
<path d="M32.2974 0.548421C32.4711 0.374563 32.6773 0.23664 32.9043 0.142538C33.1313 0.0484356 33.3747 0 33.6204 0C33.8662 0 34.1095 0.0484356 34.3365 0.142538C34.5635 0.23664 34.7697 0.374563 34.9434 0.548421L36.2664 1.87142L8.48642 29.6514C6.29742 31.8404 6.38642 35.4884 8.57442 37.6774L20.7064 49.8094C20.2078 50.8572 20.0455 52.0335 20.2417 53.1772C20.4379 54.3208 20.9831 55.3758 21.8024 56.1974C22.624 57.0172 23.6791 57.5626 24.823 57.759C25.9668 57.9554 27.1434 57.7932 28.1914 57.2944L40.3234 69.4264C42.5114 71.6144 46.1604 71.7024 48.3484 69.5144L76.1284 41.7344L77.4514 43.0564C77.6253 43.2301 77.7632 43.4363 77.8573 43.6633C77.9514 43.8903 77.9998 44.1337 77.9998 44.3794C77.9998 44.6252 77.9514 44.8685 77.8573 45.0955C77.7632 45.3225 77.6253 45.5287 77.4514 45.7024L45.7024 77.4534C45.5288 77.6271 45.3226 77.7649 45.0957 77.8589C44.8688 77.953 44.6255 78.0013 44.3799 78.0013C44.1343 78.0013 43.8911 77.953 43.6642 77.8589C43.4372 77.7649 43.2311 77.6271 43.0574 77.4534L28.1904 62.5844C27.1424 63.0832 25.9658 63.2454 24.822 63.049C23.6781 62.8526 22.623 62.3072 21.8014 61.4874L16.5104 56.1964C15.6909 55.3749 15.1455 54.32 14.9491 53.1763C14.7527 52.0327 14.9149 50.8563 15.4134 49.8084L0.548421 34.9434C0.374563 34.7697 0.23664 34.5635 0.142538 34.3365C0.0484357 34.1095 0 33.8662 0 33.6204C0 33.3747 0.0484357 33.1313 0.142538 32.9043C0.23664 32.6773 0.374563 32.4711 0.548421 32.2974L32.2974 0.548421ZM58.8104 21.8364C60.7584 22.1064 62.6404 22.9534 64.1354 24.4484L74.7184 35.0314C74.8923 35.2051 75.0302 35.4113 75.1243 35.6383C75.2184 35.8653 75.2668 36.1087 75.2668 36.3544C75.2668 36.6002 75.2184 36.8435 75.1243 37.0705C75.0302 37.2975 74.8923 37.5037 74.7184 37.6774L45.6144 66.7804C45.4407 66.9543 45.2345 67.0922 45.0075 67.1863C44.7805 67.2804 44.5372 67.3288 44.2914 67.3288C44.0457 67.3288 43.8023 67.2804 43.5753 67.1863C43.3483 67.0922 43.1421 66.9543 42.9684 66.7804L29.7404 53.5514C29.3894 53.2008 28.9136 53.0038 28.4174 53.0038C27.9213 53.0038 27.4454 53.2008 27.0944 53.5514L58.8104 21.8364ZM48.2604 5.92842C48.4341 5.75441 48.6404 5.61636 48.8675 5.52217C49.0946 5.42798 49.3381 5.3795 49.5839 5.3795C49.8298 5.3795 50.0732 5.42798 50.3003 5.52217C50.5274 5.61636 50.7337 5.75441 50.9074 5.92842C55.3964 10.4174 56.7844 14.9084 57.0854 18.2704L26.7404 48.6134C27.0894 47.0864 27.9214 41.1504 21.8024 35.0314C21.6286 34.8577 21.4906 34.6515 21.3965 34.4245C21.3024 34.1975 21.254 33.9542 21.254 33.7084C21.254 33.4627 21.3024 33.2193 21.3965 32.9923C21.4906 32.7653 21.6286 32.5591 21.8024 32.3854L48.2604 5.92842ZM40.3244 3.28242C40.4981 3.10871 40.7042 2.97092 40.9312 2.8769C41.1581 2.78289 41.4013 2.7345 41.6469 2.7345C41.8925 2.7345 42.1358 2.78289 42.3627 2.8769C42.5896 2.97092 42.7958 3.10871 42.9694 3.28242L44.2924 4.60542L19.1584 29.7394C18.1072 30.7928 17.5169 32.2202 17.5169 33.7084C17.5169 35.1966 18.1072 36.624 19.1584 37.6774C23.1634 41.6824 23.3584 45.3734 23.2014 47.0124L11.2204 35.0314C11.0466 34.8577 10.9086 34.6515 10.8145 34.4245C10.7204 34.1975 10.672 33.9542 10.672 33.7084C10.672 33.4627 10.7204 33.2193 10.8145 32.9923C10.9086 32.7653 11.0466 32.5591 11.2204 32.3854L40.3244 3.28242Z" fill="#F04667"/>
</svg>
