<svg width="78" height="78" viewBox="0 0 78 78" fill="none" xmlns="http://www.w3.org/2000/svg">
<path d="M18.1069 10.3434L33.5709 41.2494C33.8809 41.9314 34.3139 42.5714 34.8709 43.1294C35.4289 43.6864 36.0689 44.1194 36.5849 44.3464L67.6569 59.8934L51.9039 75.6454C51.1586 76.3915 50.2736 76.9834 49.2994 77.3872C48.3252 77.791 47.281 77.9989 46.2264 77.9989C45.1719 77.9989 44.1276 77.791 43.1535 77.3872C42.1793 76.9834 41.2942 76.3915 40.5489 75.6454L2.35394 37.4514C1.60771 36.7061 1.01571 35.821 0.611806 34.8467C0.207898 33.8725 0 32.8281 0 31.7734C0 30.7188 0.207898 29.6744 0.611806 28.7001C1.01571 27.7259 1.60771 26.8408 2.35394 26.0954L18.1069 10.3434ZM37.4519 2.35344L48.2909 13.1914L50.3559 11.1274C51.4518 10.0338 52.9367 9.41951 54.4849 9.41951C56.0331 9.41951 57.5181 10.0338 58.6139 11.1274L66.8719 19.3864C67.9656 20.4823 68.5799 21.9672 68.5799 23.5154C68.5799 25.0636 67.9656 26.5486 66.8719 27.6444L64.8079 29.7084L75.6469 40.5484C76.393 41.2937 76.9849 42.1788 77.3887 43.153C77.7925 44.1271 78.0004 45.1714 78.0004 46.2259C78.0004 47.2805 77.7925 48.3247 77.3887 49.2989C76.9849 50.2731 76.393 51.1581 75.6469 51.9034L70.9189 56.6314L38.5459 40.4434C38.3298 40.3421 38.1339 40.2021 37.9679 40.0304C37.7963 39.8645 37.6563 39.6686 37.5549 39.4524L21.3699 7.08144L26.0979 2.35344C26.8432 1.60736 27.7283 1.01549 28.7025 0.61167C29.6767 0.207851 30.7209 0 31.7754 0C32.83 0 33.8742 0.207851 34.8484 0.61167C35.8226 1.01549 36.7066 1.60736 37.4519 2.35344ZM54.4849 15.2564L52.4209 17.3214L60.6789 25.5794L62.7429 23.5154L54.4849 15.2564Z" fill="#D96C47"/>
</svg>
